<?xml version="1.0" encoding="utf-8"?>
<!-- Generator: Adobe Illustrator 19.2.1, SVG Export Plug-In . SVG Version: 6.00 Build 0)  -->
<svg version="1.1" id="Calque_1" xmlns="http://www.w3.org/2000/svg" xmlns:xlink="http://www.w3.org/1999/xlink" x="0px" y="0px"
	 viewBox="0 0 735.6 303" style="enable-background:new 0 0 735.6 303;" xml:space="preserve">
<style type="text/css">
	.st0{fill:#F9FF03;}
	.st1{fill:#FFFFFF;}
</style>
<polygon class="st0" points="364.3,237.9 349.4,237.9 332.5,237.9 317.6,237.9 286.1,237.9 286.1,246.9 317.6,246.9 332.5,246.9 
	349.4,246.9 364.3,246.9 396.1,246.9 396.1,237.9 "/>
<path class="st0" d="M436.3,277.7c0-1.6-0.7-2.8-2.1-3.7c-1.4-0.9-2.9-1.4-4.5-1.8s-2.5-0.6-2.8-0.8c-4.3-1.2-7.6-2.8-9.9-5
	c-2.3-2.1-3.4-5.3-3.5-9.5c0-4.2,1.7-7.5,5.2-10.1s7.8-3.8,12.9-3.8c3,0,6.1,0.4,9.5,1.3c3.3,0.9,6.1,2,8.3,3.3l-4.1,10.5
	c-4.1-2.5-8.1-3.8-12-3.8c-2.7,0-4.1,0.8-4.1,2.5s1.8,3,5.3,4c6,1.6,10.4,3.7,13.2,6.2c2.8,2.5,4.2,6.2,4.2,11.1s-2,8.8-5.9,11.7
	c-3.9,2.9-8.2,4.4-12.9,4.4c-4.8,0-8.9-0.8-12.4-2.3s-6.2-3.2-7.8-5.1l6.3-10c3.3,3.2,7,4.7,11,4.7S436.3,280.4,436.3,277.7z"/>
<path class="st0" d="M476.5,256.9v15.8c0,4.5,0.7,6.9,2.1,7.2s2.7,0.3,3.8,0.1c1.1-0.2,2.3-0.5,3.6-0.9v14.1
	c-6,1.3-10.9,1.6-14.6,0.9c-3.7-0.8-6.4-2.8-8-6.1c-1.6-3.3-2.5-8.4-2.5-15.3v-15.8H455v-12.6h5.8v-21.4h15.6v21.4h9.5v12.6
	L476.5,256.9L476.5,256.9z"/>
<path class="st0" d="M517.3,241.9c13.4,0,20,5.7,20,17.1v33.9h-14.2c-0.7-1.6-1.1-3.1-1.3-4.6c-1.5,1.8-3.5,3.3-5.9,4.5
	c-2.5,1.2-5.2,1.8-8.3,1.8c-5.5,0-9.9-1.7-13.2-5.1c-3.3-3.4-4.9-7.4-4.9-12s1.5-8.6,4.6-11.8c3.1-3.3,7.6-4.9,13.6-5
	c4.5,0,9.2,0.9,14.1,2.6v-1c0-3.2-0.7-5.3-2.1-6.3s-3.4-1.5-6.2-1.5c-5.4,0-10.4,1.3-15.2,3.9l-5.2-10.7c2.9-1.6,6.4-2.9,10.6-4.1
	C507.9,242.5,512.5,241.9,517.3,241.9z M511.3,270.3c-1.5,0-3,0.5-4.3,1.5s-1.9,2.6-1.9,4.5s0.6,3.4,1.8,4.3
	c1.2,0.9,2.7,1.3,4.5,1.3c4.3,0,7.8-1.1,10.5-3.2v-6.2C518.2,271,514.7,270.3,511.3,270.3z"/>
<path class="st0" d="M544.3,244.3h14.1c0.4,1,0.8,2.8,1.1,5.4c6.8-6.6,13.1-8,18.9-4.1l-4.2,12.6c-2.1-1.6-4.5-2.2-7-1.8
	c-2.5,0.3-5,1.7-7.3,4v32.5h-15.6V244.3z"/>
<path class="st0" d="M601.4,256.9v15.8c0,4.5,0.7,6.9,2.1,7.2c1.4,0.3,2.7,0.3,3.8,0.1c1.1-0.2,2.3-0.5,3.6-0.9v14.1
	c-6,1.3-10.9,1.6-14.6,0.9c-3.7-0.8-6.4-2.8-8-6.1c-1.6-3.3-2.5-8.4-2.5-15.3v-15.8H580v-12.6h5.8v-21.4h15.6v21.4h9.5v12.6
	L601.4,256.9L601.4,256.9z"/>
<path class="st0" d="M662.3,275.2H631c1.2,4.6,3.9,6.9,8.2,6.9c3.7,0,7.5-1,11.5-3.1l5.4,10.2c-2.2,1.6-4.8,3-7.9,4s-6,1.6-8.9,1.6
	c-8.1,0-14.2-2.5-18.3-7.6s-6.1-11.3-6.1-18.8s2.2-13.5,6.6-18.2c4.4-4.6,10.2-7,17.2-7c8.5,0,14.5,2.7,18.2,8.2
	C660.5,256.8,662.3,264.8,662.3,275.2z M645.9,258.3c-1.3-1.7-3.5-2.5-6.6-2.5s-5.3,0.8-6.6,2.5s-2.1,4.1-2.3,7.3h17.7
	C648,262.5,647.2,260,645.9,258.3z"/>
<path class="st0" d="M668.3,244.3h14.1c0.4,1,0.8,2.8,1.1,5.4c6.8-6.6,13.1-8,18.9-4.1l-4.2,12.6c-2.1-1.6-4.5-2.2-7-1.8
	c-2.5,0.3-5,1.7-7.3,4v32.5h-15.6V244.3z"/>
<path class="st1" d="M145,59.1L91.3,186.2c-18.2,44.9-45.1,49.8-75.5,39.6c-2.9-1-4.6-4.1-3.6-7l6.5-18.9c1-3,4.3-4.4,7.2-3.4
	c15.9,5.9,22.3,2.1,30.6-19.8c0.5-1.3,0.5-2.8,0-4L11.3,59c-1.4-3.6,1.2-7.6,5.1-7.6h31.1c2.3,0,4.4,1.4,5.2,3.6l20.8,56.1
	c1.7,4.7,8.4,4.8,10.3,0.2l23.1-56.5c0.8-2.1,2.9-3.4,5.1-3.4h27.9C143.8,51.5,146.5,55.5,145,59.1z"/>
<path class="st1" d="M205.5,132.1c-4.1,0.9-5.7,5.9-3,9.1c4.8,5.5,11.2,8.3,19.5,6.5c8.6-1.9,17.3-7.2,22.6-11.2
	c2.3-1.7,5.6-1.3,7.4,0.9l11.8,14c1.9,2.3,1.7,5.7-0.5,7.7c-9.2,8.3-22.4,15.5-34.8,18.2c-42.8,9.3-67.3-18.7-74.2-50.7
	C146,87,165.1,57.7,199.7,50.2C242.1,41,263,66.3,274,111.5c0.7,3-1.2,6-4.2,6.6L205.5,132.1z M229,101.8c3.4-0.7,5.2-4.3,3.9-7.5
	c-4.1-10.5-11-16.6-25.4-13.5c-13.2,2.9-17.3,11.4-16.9,22.6c0.1,3.5,3.3,6.1,6.7,5.3L229,101.8z"/>
<path class="st1" d="M289.7,169.1V20.7c0-3,2.5-5.5,5.5-5.5h28.1c3,0,5.5,2.5,5.5,5.5v148.4c0,3-2.5,5.5-5.5,5.5h-28.1
	C292.1,174.6,289.7,172.2,289.7,169.1z"/>
<path class="st1" d="M351.5,169.1V20.7c0-3,2.5-5.5,5.5-5.5h28.1c3,0,5.5,2.5,5.5,5.5v148.4c0,3-2.5,5.5-5.5,5.5H357
	C354,174.6,351.5,172.2,351.5,169.1z"/>
<path class="st1" d="M531.1,125.9c-7.4,37.7-35.4,59.5-74,51.9c-38.9-7.7-56.4-38.5-49-76.2c8.2-41.3,39.4-58.5,74.2-51.6
	C521,57.7,538.6,88.2,531.1,125.9z M446.8,109.3c-3.5,17.6,0.8,33,16.7,36.2c15.7,3.1,25.5-9.5,29-27.2c3.5-17.6-0.8-32.6-16.6-35.7
	C460,79.5,450.3,91.6,446.8,109.3z"/>
<path class="st1" d="M623.2,126.1L596.6,175c-2.2,4-7.9,3.8-9.8-0.3L532.3,59.3c-1.7-3.7,0.9-7.9,5-7.9h29.6c2.2,0,4.2,1.3,5.1,3.3
	l18.7,43.1c1.8,4.2,7.8,4.5,9.9,0.4l22.7-42.6c2.1-3.9,7.7-3.9,9.7,0l22.7,42.6c2.2,4.1,8.1,3.8,9.9-0.4l18.7-43.1
	c0.9-2,2.9-3.3,5.1-3.3H719c4,0,6.7,4.2,5,7.9l-54.5,115.3c-1.9,4.1-7.7,4.2-9.8,0.3L633,126C630.8,122.3,625.3,122.3,623.2,126.1z"
	/>
</svg>
