<?xml version="1.0" encoding="utf-8"?>
<!-- Generator: Adobe Illustrator 19.2.1, SVG Export Plug-In . SVG Version: 6.00 Build 0)  -->
<svg version="1.1" id="Calque_1" xmlns="http://www.w3.org/2000/svg" xmlns:xlink="http://www.w3.org/1999/xlink" x="0px" y="0px"
	 viewBox="0 0 735.6 303" style="enable-background:new 0 0 735.6 303;" xml:space="preserve">
<style type="text/css">
	.st0{fill:#0020FB;}
</style>
<g>
	<polygon class="st0" points="364,237.9 349.1,237.9 332.2,237.9 317.3,237.9 285.1,237.9 285.1,246.9 317.3,246.9 332.2,246.9 
		349.1,246.9 364,246.9 396.1,246.9 396.1,237.9 	"/>
	<path class="st0" d="M436,277.9c0-1.6-0.7-2.8-2.1-3.7s-2.9-1.4-4.5-1.8c-1.6-0.3-2.5-0.6-2.8-0.8c-4.3-1.2-7.6-2.8-9.9-5
		c-2.3-2.1-3.4-5.3-3.5-9.5c0-4.2,1.7-7.5,5.2-10.1c3.5-2.6,7.8-3.8,12.9-3.8c3,0,6.1,0.4,9.5,1.3c3.3,0.9,6.1,2,8.3,3.3l-4.1,10.5
		c-4.1-2.5-8.1-3.8-12-3.8c-2.7,0-4.1,0.8-4.1,2.5s1.8,3,5.3,4c6,1.6,10.4,3.7,13.2,6.2c2.8,2.5,4.2,6.2,4.2,11.1
		c0,4.9-2,8.8-5.9,11.7c-3.9,2.9-8.2,4.4-12.9,4.4c-4.8,0-8.9-0.8-12.4-2.3c-3.5-1.5-6.2-3.2-7.8-5.1l6.3-10c3.3,3.2,7,4.7,11,4.7
		C434,281.8,436,280.5,436,277.9z"/>
	<path class="st0" d="M476.2,257v15.8c0,4.5,0.7,6.9,2.1,7.2c1.4,0.3,2.7,0.3,3.8,0.1c1.1-0.2,2.3-0.5,3.6-0.9v14.1
		c-6,1.3-10.9,1.6-14.6,0.9c-3.7-0.8-6.4-2.8-8-6.1c-1.6-3.3-2.5-8.4-2.5-15.3V257h-5.8v-12.6h5.8V223h15.6v21.4h9.5V257H476.2z"/>
	<path class="st0" d="M517,242.1c13.4,0,20,5.7,20,17.1V293h-14.2c-0.7-1.6-1.1-3.1-1.3-4.6c-1.5,1.8-3.5,3.3-5.9,4.5
		c-2.5,1.2-5.2,1.8-8.3,1.8c-5.5,0-9.9-1.7-13.2-5.1s-4.9-7.4-4.9-12s1.5-8.6,4.6-11.8c3.1-3.3,7.6-4.9,13.6-5
		c4.5,0,9.2,0.9,14.1,2.6v-1c0-3.2-0.7-5.3-2.1-6.3s-3.4-1.5-6.2-1.5c-5.4,0-10.4,1.3-15.2,3.9l-5.2-10.7c2.9-1.6,6.4-2.9,10.6-4.1
		C507.7,242.6,512.2,242.1,517,242.1z M511,270.4c-1.5,0-3,0.5-4.3,1.5c-1.3,1-1.9,2.6-1.9,4.5s0.6,3.4,1.8,4.3
		c1.2,0.9,2.7,1.3,4.5,1.3c4.3,0,7.8-1.1,10.5-3.2v-6.2C517.9,271.1,514.4,270.4,511,270.4z"/>
	<path class="st0" d="M544,244.4h14.1c0.4,1,0.8,2.8,1.1,5.4c6.8-6.6,13.1-8,18.9-4.1l-4.2,12.6c-2.1-1.6-4.5-2.2-7-1.8
		s-5,1.7-7.3,4V293H544V244.4z"/>
	<path class="st0" d="M601.2,257v15.8c0,4.5,0.7,6.9,2.1,7.2c1.4,0.3,2.7,0.3,3.8,0.1s2.3-0.5,3.6-0.9v14.1
		c-6,1.3-10.9,1.6-14.6,0.9c-3.7-0.8-6.4-2.8-8-6.1c-1.6-3.3-2.5-8.4-2.5-15.3V257h-5.8v-12.6h5.8V223h15.6v21.4h9.5V257H601.2z"/>
	<path class="st0" d="M662,275.3h-31.3c1.2,4.6,3.9,6.9,8.2,6.9c3.7,0,7.5-1,11.5-3.1l5.4,10.2c-2.2,1.6-4.8,3-7.9,4
		c-3,1-6,1.6-8.9,1.6c-8.1,0-14.2-2.5-18.3-7.6c-4.1-5.1-6.1-11.3-6.1-18.8c0-7.5,2.2-13.5,6.6-18.2c4.4-4.6,10.2-7,17.2-7
		c8.5,0,14.5,2.7,18.2,8.2C660.2,256.9,662,264.9,662,275.3z M645.7,258.5c-1.3-1.7-3.5-2.5-6.6-2.5c-3.1,0-5.3,0.8-6.6,2.5
		c-1.3,1.7-2.1,4.1-2.3,7.3h17.7C647.7,262.6,647,260.1,645.7,258.5z"/>
	<path class="st0" d="M668,244.4h14.1c0.4,1,0.8,2.8,1.1,5.4c6.8-6.6,13.1-8,18.9-4.1l-4.2,12.6c-2.1-1.6-4.5-2.2-7-1.8
		c-2.5,0.3-5,1.7-7.3,4V293H668V244.4z"/>
	<path class="st0" d="M144.7,59.2L91,186.3c-18.2,44.9-45.1,49.8-75.5,39.6c-2.9-1-4.6-4.1-3.6-7l6.5-18.9c1-3,4.3-4.4,7.2-3.4
		c15.9,5.9,22.3,2.1,30.6-19.8c0.5-1.3,0.5-2.8,0-4L11,59.1c-1.4-3.6,1.2-7.6,5.1-7.6h31.1c2.3,0,4.4,1.4,5.2,3.6l20.8,56.1
		c1.7,4.7,8.4,4.8,10.3,0.2L106.6,55c0.8-2.1,2.9-3.4,5.1-3.4h27.9C143.6,51.6,146.2,55.6,144.7,59.2z"/>
	<path class="st0" d="M205.3,132.2c-4.1,0.9-5.7,5.9-3,9.1c4.8,5.5,11.2,8.3,19.5,6.5c8.6-1.9,17.3-7.2,22.6-11.2
		c2.3-1.7,5.6-1.3,7.4,0.9l11.8,14c1.9,2.3,1.7,5.7-0.5,7.7c-9.2,8.3-22.4,15.5-34.8,18.2c-42.8,9.3-67.3-18.7-74.2-50.7
		c-8.6-39.5,10.5-68.8,45.2-76.3c42.4-9.2,63.3,16.1,74.2,61.4c0.7,3-1.2,6-4.2,6.6L205.3,132.2z M228.8,101.9
		c3.4-0.7,5.2-4.3,3.9-7.5c-4.1-10.5-11-16.6-25.4-13.5c-13.2,2.9-17.3,11.4-16.9,22.6c0.1,3.5,3.3,6.1,6.7,5.3L228.8,101.9z"/>
	<path class="st0" d="M289.4,169.2V20.8c0-3,2.5-5.5,5.5-5.5H323c3,0,5.5,2.5,5.5,5.5v148.4c0,3-2.5,5.5-5.5,5.5h-28.1
		C291.9,174.7,289.4,172.3,289.4,169.2z"/>
	<path class="st0" d="M351.2,169.2V20.8c0-3,2.5-5.5,5.5-5.5h28.1c3,0,5.5,2.5,5.5,5.5v148.4c0,3-2.5,5.5-5.5,5.5h-28.1
		C353.7,174.7,351.2,172.3,351.2,169.2z"/>
	<path class="st0" d="M530.9,126.1c-7.4,37.7-35.4,59.5-74,51.9c-38.9-7.7-56.4-38.5-49-76.2c8.2-41.3,39.4-58.5,74.2-51.6
		C520.7,57.8,538.3,88.4,530.9,126.1z M446.5,109.4c-3.5,17.6,0.8,33,16.7,36.2c15.7,3.1,25.5-9.5,29-27.2
		c3.5-17.6-0.8-32.6-16.6-35.7C459.7,79.6,450,91.8,446.5,109.4z"/>
	<path class="st0" d="M623,126.2l-26.7,48.9c-2.2,4-7.9,3.8-9.8-0.3L532,59.5c-1.7-3.7,0.9-7.9,5-7.9h29.6c2.2,0,4.2,1.3,5.1,3.3
		L590.3,98c1.8,4.2,7.8,4.5,9.9,0.4l22.7-42.6c2.1-3.9,7.7-3.9,9.7,0l22.7,42.6c2.2,4.1,8.1,3.8,9.9-0.4L684,54.9
		c0.9-2,2.9-3.3,5.1-3.3h29.6c4,0,6.7,4.2,5,7.9l-54.5,115.3c-1.9,4.1-7.7,4.2-9.8,0.3l-26.7-48.9
		C630.6,122.4,625.1,122.4,623,126.2z"/>
</g>
</svg>
