<?xml version="1.0" encoding="utf-8"?>
<!-- Generator: Adobe Illustrator 19.2.1, SVG Export Plug-In . SVG Version: 6.00 Build 0)  -->
<svg version="1.1" id="Calque_1" xmlns="http://www.w3.org/2000/svg" xmlns:xlink="http://www.w3.org/1999/xlink" x="0px" y="0px"
	 viewBox="0 0 133.3 51.7" style="enable-background:new 0 0 133.3 51.7;" xml:space="preserve">
<style type="text/css">
	.st0{fill:#9C9F9E;}
	.st1{fill:#0040FF;}
</style>
<g>
	<path class="st0" d="M25.6,9.1l-9.9,23.3c-3.3,8.2-8.3,9.1-13.9,7.3c-0.5-0.2-0.8-0.8-0.7-1.3l1.2-3.5c0.2-0.5,0.8-0.8,1.3-0.6
		c2.9,1.1,4.1,0.4,5.6-3.6c0.1-0.2,0.1-0.5,0-0.7L1.1,9C0.8,8.4,1.3,7.7,2,7.7h5.7c0.4,0,0.8,0.3,0.9,0.7l3.8,10.3
		c0.3,0.9,1.5,0.9,1.9,0l4.2-10.4c0.2-0.4,0.5-0.6,0.9-0.6h5.1C25.4,7.7,25.9,8.4,25.6,9.1z"/>
</g>
<g>
	<path class="st0" d="M36.7,22.5c-0.8,0.2-1,1.1-0.5,1.7c0.9,1,2.1,1.5,3.6,1.2c1.6-0.3,3.2-1.3,4.2-2.1c0.4-0.3,1-0.2,1.4,0.2
		l2.2,2.6c0.4,0.4,0.3,1-0.1,1.4c-1.7,1.5-4.1,2.9-6.4,3.3c-7.9,1.7-12.4-3.4-13.6-9.3c-1.6-7.2,1.9-12.6,8.3-14
		c7.8-1.7,11.6,3,13.6,11.3c0.1,0.5-0.2,1.1-0.8,1.2L36.7,22.5z M41.1,16.9c0.6-0.1,1-0.8,0.7-1.4c-0.8-1.9-2-3.1-4.7-2.5
		c-2.4,0.5-3.2,2.1-3.1,4.1c0,0.6,0.6,1.1,1.2,1L41.1,16.9z"/>
</g>
<g>
	<path class="st0" d="M52.2,29.3V2c0-0.6,0.5-1,1-1h5.2c0.6,0,1,0.5,1,1v27.2c0,0.6-0.5,1-1,1h-5.2C52.6,30.3,52.2,29.8,52.2,29.3z"
		/>
</g>
<g>
	<path class="st0" d="M63.5,29.3V2c0-0.6,0.5-1,1-1h5.2c0.6,0,1,0.5,1,1v27.2c0,0.6-0.5,1-1,1h-5.2C64,30.3,63.5,29.8,63.5,29.3z"/>
</g>
<g>
	<path class="st0" d="M96.5,21.3c-1.4,6.9-6.5,10.9-13.6,9.5c-7.1-1.4-10.4-7.1-9-14c1.5-7.6,7.2-10.7,13.6-9.5
		C94.7,8.8,97.9,14.4,96.5,21.3z M81,18.3c-0.6,3.2,0.1,6.1,3.1,6.6c2.9,0.6,4.7-1.7,5.3-5c0.6-3.2-0.2-6-3-6.5
		C83.4,12.8,81.7,15,81,18.3z"/>
</g>
<g>
	<path class="st0" d="M113.4,21.4l-4.9,9c-0.4,0.7-1.5,0.7-1.8-0.1l-10-21.2c-0.3-0.7,0.2-1.4,0.9-1.4h5.4c0.4,0,0.8,0.2,0.9,0.6
		l3.4,7.9c0.3,0.8,1.4,0.8,1.8,0.1l4.2-7.8c0.4-0.7,1.4-0.7,1.8,0l4.2,7.8c0.4,0.7,1.5,0.7,1.8-0.1l3.4-7.9c0.2-0.4,0.5-0.6,0.9-0.6
		h5.4c0.7,0,1.2,0.8,0.9,1.4l-10,21.2c-0.4,0.7-1.4,0.8-1.8,0.1l-4.9-9C114.8,20.7,113.8,20.7,113.4,21.4z"/>
</g>
<g>
	<path class="st1" d="M79.9,46.6c0-0.3-0.2-0.6-0.5-0.8s-0.6-0.3-1-0.4s-0.5-0.1-0.6-0.2c-0.9-0.3-1.7-0.6-2.1-1.1S75,43,75,42.1
		c0-0.9,0.4-1.6,1.1-2.2c0.8-0.6,1.7-0.8,2.8-0.8c0.6,0,1.3,0.1,2,0.3c0.7,0.2,1.3,0.4,1.8,0.7l-0.9,2.3c-0.9-0.5-1.8-0.8-2.6-0.8
		c-0.6,0-0.9,0.2-0.9,0.5c0,0.4,0.4,0.6,1.1,0.9c1.3,0.3,2.2,0.8,2.9,1.3c0.6,0.5,0.9,1.3,0.9,2.4c0,1.1-0.4,1.9-1.3,2.5
		c-0.8,0.6-1.8,0.9-2.8,0.9c-1,0-1.9-0.2-2.7-0.5s-1.3-0.7-1.7-1.1l1.4-2.2c0.7,0.7,1.5,1,2.4,1S79.9,47.2,79.9,46.6z"/>
	<path class="st1" d="M89,42.1v3.4c0,1,0.2,1.5,0.5,1.5s0.6,0.1,0.8,0s0.5-0.1,0.8-0.2v3c-1.3,0.3-2.3,0.3-3.1,0.2s-1.4-0.6-1.7-1.3
		s-0.5-1.8-0.5-3.3v-3.4h-1.3v-2.7h1.3v-4.6H89v4.6h2.1v2.7H89z"/>
	<path class="st1" d="M98.2,38.9c2.9,0,4.3,1.2,4.3,3.7v7.3h-3.1c-0.1-0.3-0.2-0.7-0.3-1c-0.3,0.4-0.7,0.7-1.3,1
		c-0.5,0.3-1.1,0.4-1.8,0.4c-1.2,0-2.1-0.4-2.9-1.1s-1.1-1.6-1.1-2.6s0.3-1.9,1-2.6c0.7-0.7,1.6-1.1,2.9-1.1c1,0,2,0.2,3,0.6v-0.2
		c0-0.7-0.1-1.1-0.4-1.4c-0.3-0.2-0.7-0.3-1.3-0.3c-1.2,0-2.3,0.3-3.3,0.8L93,40.1c0.6-0.3,1.4-0.6,2.3-0.9
		C96.2,39,97.2,38.9,98.2,38.9z M96.9,45c-0.3,0-0.6,0.1-0.9,0.3c-0.3,0.2-0.4,0.6-0.4,1c0,0.4,0.1,0.7,0.4,0.9
		c0.3,0.2,0.6,0.3,1,0.3c0.9,0,1.7-0.2,2.3-0.7v-1.3C98.4,45.1,97.7,45,96.9,45z"/>
	<path class="st1" d="M104.5,39.4h3c0.1,0.2,0.2,0.6,0.2,1.2c1.5-1.4,2.8-1.7,4.1-0.9l-0.9,2.7c-0.5-0.3-1-0.5-1.5-0.4
		s-1.1,0.4-1.6,0.9v7h-3.4V39.4z"/>
	<path class="st1" d="M117.2,42.1v3.4c0,1,0.2,1.5,0.5,1.5s0.6,0.1,0.8,0s0.5-0.1,0.8-0.2v3c-1.3,0.3-2.3,0.3-3.1,0.2
		s-1.4-0.6-1.7-1.3s-0.5-1.8-0.5-3.3v-3.4h-1.3v-2.7h1.3v-4.6h3.4v4.6h2.1v2.7H117.2z"/>
</g>
<g>
	<rect x="52.2" y="40.3" class="st1" width="18.5" height="2.7"/>
</g>
</svg>
