<?xml version="1.0" encoding="UTF-8" standalone="no"?>
<svg width="61px" height="55px" viewBox="0 0 61 55" version="1.1" xmlns="http://www.w3.org/2000/svg" xmlns:xlink="http://www.w3.org/1999/xlink">
    <!-- Generator: Sketch 3.8.2 (29753) - http://www.bohemiancoding.com/sketch -->
    <title>Shape + +</title>
    <desc>Created with Sketch.</desc>
    <defs>
        <path d="M40.3053362,0 C39.0376763,0 37.7440382,0.228668233 36.4251748,0.685613143 C35.105935,1.14294961 33.8789366,1.76004059 32.744556,2.53610299 C31.6094225,3.31216538 30.6335464,4.04084959 29.8150455,4.72137252 C28.9972975,5.40189545 28.2202111,6.12509789 27.4841626,6.89058829 C26.7477376,6.12509789 25.9706512,5.40189545 25.1529032,4.72137252 C24.3347788,4.04084959 23.3585263,3.31255694 22.2233927,2.53610299 C21.0882591,1.75964904 19.8612607,1.14294961 18.5423974,0.685613143 C17.2235341,0.228668233 15.9298959,0 14.662236,0 C10.0814167,0 6.4926628,1.31875789 3.89559768,3.95588212 C1.29853256,6.59300634 0,10.250915 0,14.929608 C0,16.3544773 0.240580547,17.8224177 0.720988649,19.331863 C1.20139675,20.8416998 1.74882103,22.1287417 2.362132,23.1918141 C2.97544297,24.2548864 3.67082994,25.2921162 4.4479164,26.3023286 C5.22500286,27.312541 5.79275789,28.0087261 6.1504285,28.3916671 C6.50809911,28.7742165 6.78934115,29.0506545 6.99377814,29.2205894 L26.1344267,48.425197 C26.5026392,48.8085295 26.9525511,49 27.4841626,49 C28.0157741,49 28.4656861,48.8085295 28.8338985,48.4259801 L47.9440509,29.2848045 C52.6269005,24.4150325 54.9683252,19.6298365 54.9683252,14.929608 C54.9683252,10.250915 53.6694162,6.59300634 51.072351,3.95588212 C48.4752859,1.31836634 44.886532,0 40.3053362,0 Z" id="path-1"></path>
        <mask id="mask-2" maskContentUnits="userSpaceOnUse" maskUnits="objectBoundingBox" x="-3" y="-3" width="60.9683252" height="55">
            <rect x="-3" y="-3" width="60.9683252" height="55" fill="white"></rect>
            <use xlink:href="#path-1" fill="black"></use>
        </mask>
    </defs>
    <g id="Page-1" stroke="none" stroke-width="1" fill="none" fill-rule="evenodd">
        <g id="STYLES" transform="translate(-504.000000, -1574.000000)">
            <g id="Group-2" transform="translate(507.000000, 1577.000000)">
                <g id="Shape-+-+">
                    <g>
                        <use id="Shape" stroke="#FF6500" mask="url(#mask-2)" stroke-width="6" xlink:href="#path-1"></use>
                        <text id="+" font-family="ATCOverlook-Heavy, ATC Overlook" font-size="20" font-weight="600" fill="#FF6500">
                            <tspan x="21.36" y="29">+</tspan>
                        </text>
                    </g>
                </g>
            </g>
        </g>
    </g>
</svg>