<?xml version="1.0" encoding="UTF-8" standalone="no"?>
<svg width="44px" height="56px" viewBox="0 0 44 56" version="1.1" xmlns="http://www.w3.org/2000/svg" xmlns:xlink="http://www.w3.org/1999/xlink">
    <!-- Generator: Sketch 3.8.2 (29753) - http://www.bohemiancoding.com/sketch -->
    <title>Group 3</title>
    <desc>Created with Sketch.</desc>
    <defs></defs>
    <g id="Page-1" stroke="none" stroke-width="1" fill="none" fill-rule="evenodd">
        <g id="STYLES" transform="translate(-347.000000, -2278.000000)">
            <g id="Group-3" transform="translate(348.000000, 2279.000000)">
                <rect id="Rectangle-79" stroke="#0547FD" stroke-width="1" x="0" y="0" width="42" height="54" rx="5"></rect>
                <text id="PPT" font-family="Raleway-ExtraBold, Raleway" font-size="11" font-weight="600" fill="#0547FD">
                    <tspan x="11" y="20">PPT</tspan>
                </text>
                <path d="M21.5,42 C25.6421356,42 29,38.6421356 29,34.5 C29,30.3578644 25.6421356,27 21.5,27 C17.3578644,27 14,30.3578644 14,34.5 C14,38.6421356 17.3578644,42 21.5,42 Z" id="Oval-15" fill="#0547FD"></path>
                <path d="M21.3748779,26.9812012 C21.3748779,26.9812012 26.6018066,23.3503418 28.6739502,25.996582 C29.7610066,27.3848123 30.9178976,33.5832528 30.5667725,36.2215579 C30.248584,38.612382 28.465332,37.5264893 28.465332,37.5264893 L21.3748779,34.9019775 L21.3748779,26.9812012 Z" id="Triangle-4" stroke="#FFFFFF"></path>
            </g>
        </g>
    </g>
</svg>